#N canvas 0 27 1366 688 12;
#X obj 1267 239 midiout;
#X obj 1267 196 midiin;
#X obj 144 132 vsl 20 170 0 127 0 0 empty empty VCO\ 1\ Rate -20 -9 0 12 #fcfcfc #000000 #000000 0 1;
#X obj 144 311 nbx 5 18 -1e+37 1e+37 0 0 empty empty empty 0 -10 0 12 #fcfcfc #000000 #000000 0 256;
#X obj 443 126 vsl 20 170 0 127 0 0 empty empty Lo-Pass\ Cutoff -18 -9 0 12 #fcfcfc #000000 #000000 0 1;
#X obj 443 304 nbx 5 18 -1e+37 1e+37 0 0 empty empty empty 0 -10 0 12 #fcfcfc #000000 #000000 0 256;
#X obj 231 134 vradio 20 1 0 5 empty empty VCO1\ Type -20 -10 0 12 #fcfcfc #000000 #000000 0;
#X floatatom 231 311 5 0 0 0 - - - 0;
#X text 256 135 Saw;
#X text 256 155 Triangle;
#X text 256 173 Pulse;
#X text 256 193 Sine;
#X text 257 215 Noise;
#X obj 438 358 ctlout 74;
#X obj 552 127 vsl 20 170 0 127 0 0 empty empty Lo-Pass\ Resonance -18 -9 0 12 #fcfcfc #000000 #000000 0 1;
#X obj 552 305 nbx 5 18 -1e+37 1e+37 0 0 empty empty empty 0 -10 0 12 #fcfcfc #000000 #000000 0 256;
#X obj 547 359 ctlout 71;
#X obj 231 363 ctlout 70;
#X obj 440 407 vsl 20 170 0 127 0 0 empty empty Attack -18 -9 0 12 #fcfcfc #000000 #000000 0 1;
#X obj 440 585 nbx 5 18 -1e+37 1e+37 0 0 empty empty empty 0 -10 0 12 #fcfcfc #000000 #000000 0 256;
#X obj 549 408 vsl 20 170 0 127 0 0 empty empty Decay -18 -9 0 12 #fcfcfc #000000 #000000 0 1;
#X obj 549 586 nbx 5 18 -1e+37 1e+37 0 0 empty empty empty 0 -10 0 12 #fcfcfc #000000 #000000 0 256;
#X obj 644 408 vsl 20 170 0 127 0 0 empty empty Sustain -18 -9 0 12 #fcfcfc #000000 #000000 0 1;
#X obj 644 586 nbx 5 18 -1e+37 1e+37 0 0 empty empty empty 0 -10 0 12 #fcfcfc #000000 #000000 0 256;
#X obj 753 409 vsl 20 170 0 127 0 0 empty empty Release -18 -9 0 12 #fcfcfc #000000 #000000 0 1;
#X obj 753 587 nbx 5 18 -1e+37 1e+37 0 0 empty empty empty 0 -10 0 12 #fcfcfc #000000 #000000 0 256;
#X obj 435 639 ctlout 73;
#X obj 544 640 ctlout 80;
#X obj 748 641 ctlout 72;
#X obj 639 640 ctlout 75;
#X obj 140 362 ctlout 94;
#X obj 860 122 vsl 20 170 0 127 0 0 empty empty LFO\ Rate -18 -9 0 12 #fcfcfc #000000 #000000 0 1;
#X obj 860 300 nbx 5 18 -1e+37 1e+37 0 0 empty empty empty 0 -10 0 12 #fcfcfc #000000 #000000 0 256;
#X obj 969 123 vsl 20 170 0 127 0 0 empty empty LFO\ Amount -18 -9 0 12 #fcfcfc #000000 #000000 0 1;
#X obj 969 301 nbx 5 18 -1e+37 1e+37 0 0 empty empty empty 0 -10 0 12 #fcfcfc #000000 #000000 0 256;
#X obj 855 354 ctlout 3;
#X obj 964 355 ctlout 9;
#X obj 152 426 vsl 20 170 0 127 0 0 empty empty VCO\ 2\ Rate -20 -9 0 12 #fcfcfc #000000 #000000 0 1;
#X obj 152 605 nbx 5 18 -1e+37 1e+37 0 0 empty empty empty 0 -10 0 12 #fcfcfc #000000 #000000 0 256;
#X obj 239 428 vradio 20 1 0 5 empty empty VCO2\ Type -20 -10 0 12 #fcfcfc #000000 #000000 0;
#X floatatom 239 605 5 0 0 0 - - - 0;
#X text 264 429 Saw;
#X text 264 449 Triangle;
#X text 264 467 Pulse;
#X text 264 487 Sine;
#X text 265 509 Noise;
#X obj 148 656 ctlout 100;
#X obj 239 657 ctlout 101;
#X connect 1 0 0 0;
#X connect 2 0 3 0;
#X connect 3 0 30 0;
#X connect 4 0 5 0;
#X connect 5 0 13 0;
#X connect 6 0 7 0;
#X connect 7 0 17 0;
#X connect 14 0 15 0;
#X connect 15 0 16 0;
#X connect 18 0 19 0;
#X connect 19 0 26 0;
#X connect 20 0 21 0;
#X connect 21 0 27 0;
#X connect 22 0 23 0;
#X connect 23 0 29 0;
#X connect 24 0 25 0;
#X connect 25 0 28 0;
#X connect 31 0 32 0;
#X connect 32 0 35 0;
#X connect 33 0 34 0;
#X connect 34 0 36 0;
#X connect 37 0 38 0;
#X connect 38 0 46 0;
#X connect 39 0 40 0;
#X connect 40 0 47 0;
