#N canvas 0 27 1366 688 12;
#X obj 1064 176 midiout;
#X obj 1064 133 midiin;
#X obj 97 47 cnv 20 900 550 empty empty empty 20 12 0 12 #ff8300 #404040 0;
#N canvas 23 49 681 687 LoPass 0;
#X obj 100 100 cnv 20 200 250 empty empty Lo-Pass 140 12 0 12 #faff00 #404040 0;
#X obj 138 137 vsl 20 170 0 127 0 0 empty empty Cutoff -9 -9 0 12 #fcfcfc #000000 #000000 0 1;
#X obj 138 326 nbx 3 18 -1e+37 1e+37 0 0 empty empty empty 0 -10 0 12 #fcfcfc #000000 #000000 0 256;
#X obj 109 367 ctlout 74;
#X obj 214 137 vsl 20 170 0 127 0 0 empty empty Resonance -18 -9 0 12 #fcfcfc #000000 #000000 0 1;
#X obj 214 325 nbx 3 18 -1e+37 1e+37 0 0 empty empty empty 0 -10 0 12 #fcfcfc #000000 #000000 0 256;
#X obj 186 368 ctlout 71;
#X connect 1 0 2 0;
#X connect 2 0 3 0;
#X connect 4 0 5 0;
#X connect 5 0 6 0;
#X coords 0 -1 1 1 200 250 1 100 100;
#X restore 733 327 pd LoPass;
#N canvas 0 27 681 687 OSC1 0;
#X obj 101 101 cnv 20 200 250 empty empty VCO\ 1 150 12 0 12 #faff00 #404040 0;
#X obj 114 131 vsl 20 170 0 127 0 0 empty empty Detune -5 -9 0 12 #fcfcfc #000000 #000000 0 1;
#X obj 114 310 nbx 5 18 -1e+37 1e+37 0 0 empty empty empty 0 -10 0 12 #fcfcfc #000000 #000000 0 256;
#X obj 194 133 vradio 20 1 0 5 empty empty Type -5 -10 0 12 #fcfcfc #000000 #000000 0;
#X floatatom 194 310 5 0 0 0 - - - 0;
#X text 219 134 Saw;
#X text 219 154 Triangle;
#X text 219 172 Pulse;
#X text 219 192 Sine;
#X text 220 214 Noise;
#X obj 200 364 ctlout 70;
#X obj 109 363 ctlout 76;
#X connect 1 0 2 0;
#X connect 2 0 11 0;
#X connect 3 0 4 0;
#X connect 4 0 10 0;
#X coords 0 -1 1 1 200 250 1 100 100;
#X restore 107 65 pd OSC1;
#N canvas 683 27 681 687 Envelope 1;
#X obj 101 101 cnv 20 400 250 empty empty Envelope 330 12 0 12 #faff00 #404040 0;
#X obj 121 137 vsl 20 170 0 127 0 1 empty empty Attack -10 -9 0 12 #fcfcfc #000000 #000000 0 1;
#X obj 121 315 nbx 5 18 -1e+37 1e+37 0 0 empty empty empty 0 -10 0 12 #fcfcfc #000000 #000000 0 256;
#X obj 230 138 vsl 20 170 0 127 0 1 empty empty Decay -10 -9 0 12 #fcfcfc #000000 #000000 2000 1;
#X obj 230 316 nbx 5 18 -1e+37 1e+37 0 0 empty empty empty 0 -10 0 12 #fcfcfc #000000 #000000 0 256;
#X obj 325 138 vsl 20 170 0 127 0 0 empty empty Sustain -18 -9 0 12 #fcfcfc #000000 #000000 0 1;
#X obj 325 316 nbx 5 18 -1e+37 1e+37 0 0 empty empty empty 0 -10 0 12 #fcfcfc #000000 #000000 0 256;
#X obj 434 139 vsl 20 170 0 127 0 0 empty empty Release -18 -9 0 12 #fcfcfc #000000 #000000 0 1;
#X obj 434 317 nbx 5 18 -1e+37 1e+37 0 0 empty empty empty 0 -10 0 12 #fcfcfc #000000 #000000 0 256;
#X obj 116 369 ctlout 73;
#X obj 225 370 ctlout 80;
#X obj 429 371 ctlout 72;
#X obj 320 370 ctlout 75;
#X connect 1 0 2 0;
#X connect 2 0 9 0;
#X connect 3 0 4 0;
#X connect 4 0 10 0;
#X connect 5 0 6 0;
#X connect 6 0 12 0;
#X connect 7 0 8 0;
#X connect 8 0 11 0;
#X coords 0 -1 1 1 400 250 1 100 100;
#X restore 108 326 pd Envelope;
#N canvas 0 27 1366 688 LFO 0;
#X obj 101 101 cnv 20 200 250 empty empty LFO 170 12 0 12 #faff00 #404040 0;
#X obj 122 139 vsl 20 170 0 127 0 0 empty empty LFO\ Rate -18 -9 0 12 #fcfcfc #000000 #000000 0 1;
#X obj 122 317 nbx 5 18 -1e+37 1e+37 0 0 empty empty empty 0 -10 0 12 #fcfcfc #000000 #000000 0 256;
#X obj 231 140 vsl 20 170 0 127 0 0 empty empty LFO\ Amount -18 -9 0 12 #fcfcfc #000000 #000000 0 1;
#X obj 231 318 nbx 5 18 -1e+37 1e+37 0 0 empty empty empty 0 -10 0 12 #fcfcfc #000000 #000000 0 256;
#X obj 117 371 ctlout 3;
#X obj 226 372 ctlout 9;
#X connect 1 0 2 0;
#X connect 2 0 5 0;
#X connect 3 0 4 0;
#X connect 4 0 6 0;
#X coords 0 -1 1 1 200 250 1 100 100;
#X restore 522 326 pd LFO;
#N canvas 0 27 681 687 VCO2 0;
#X obj 101 101 cnv 20 200 250 empty empty VCO\ 2 150 12 0 12 #faff00 #404040 0;
#X obj 114 131 vsl 20 170 0 127 0 0 empty empty Detune -5 -9 0 12 #fcfcfc #000000 #000000 0 1;
#X obj 114 310 nbx 5 18 -1e+37 1e+37 0 0 empty empty empty 0 -10 0 12 #fcfcfc #000000 #000000 0 256;
#X obj 194 133 vradio 20 1 0 5 empty empty Type -5 -10 0 12 #fcfcfc #000000 #000000 0;
#X floatatom 194 310 5 0 0 0 - - - 0;
#X text 219 134 Saw;
#X text 219 154 Triangle;
#X text 219 172 Pulse;
#X text 219 192 Sine;
#X text 220 214 Noise;
#X obj 109 363 ctlout 78;
#X obj 200 364 ctlout 77;
#X connect 1 0 2 0;
#X connect 2 0 10 0;
#X connect 3 0 4 0;
#X connect 4 0 11 0;
#X coords 0 -1 1 1 200 250 1 100 100;
#X restore 314 65 pd VCO2;
#N canvas 0 27 681 687 VCO2 0;
#X obj 101 101 cnv 20 200 250 empty empty VCO\ 3 150 12 0 12 #faff00 #404040 0;
#X obj 114 131 vsl 20 170 0 127 0 0 empty empty Detune -5 -9 0 12 #fcfcfc #000000 #000000 0 1;
#X obj 114 310 nbx 5 18 -1e+37 1e+37 0 0 empty empty empty 0 -10 0 12 #fcfcfc #000000 #000000 0 256;
#X obj 194 133 vradio 20 1 0 5 empty empty Type -5 -10 0 12 #fcfcfc #000000 #000000 0;
#X floatatom 194 310 5 0 0 0 - - - 0;
#X text 219 134 Saw;
#X text 219 154 Triangle;
#X text 219 172 Pulse;
#X text 219 192 Sine;
#X text 220 214 Noise;
#X obj 109 363 ctlout 86;
#X obj 200 364 ctlout 85;
#X connect 1 0 2 0;
#X connect 2 0 10 0;
#X connect 3 0 4 0;
#X connect 4 0 11 0;
#X coords 0 -1 1 1 200 250 1 100 100;
#X restore 520 65 pd VCO2;
#N canvas 0 27 681 687 mixer 0;
#X obj 100 101 cnv 20 250 250 empty empty empty 20 12 0 12 #faff00 #404040 0;
#X obj 115 134 vsl 20 170 0 127 0 0 empty empty VCO\ 1 -10 -9 0 12 #fcfcfc #000000 #000000 0 1;
#X obj 154 134 vsl 20 170 0 127 0 0 empty empty VCO\ 2 -10 -9 0 12 #fcfcfc #000000 #000000 0 1;
#X obj 192 134 vsl 20 170 0 127 0 0 empty empty VCO\ 3 -10 -9 0 12 #fcfcfc #000000 #000000 0 1;
#X obj 233 134 vsl 20 170 0 127 0 0 empty empty Noise -10 -9 0 12 #fcfcfc #000000 #000000 0 1;
#X obj 290 135 vsl 20 170 0 127 0 0 empty empty Volume -10 -9 0 12 #fcfcfc #000000 #000000 0 1;
#X floatatom 290 313 5 0 0 0 - - - 0;
#X floatatom 233 312 5 0 0 0 - - - 0;
#X floatatom 192 312 5 0 0 0 - - - 0;
#X floatatom 154 312 5 0 0 0 - - - 0;
#X floatatom 115 312 5 0 0 0 - - - 0;
#X obj 95 413 ctlout 102;
#X obj 173 414 ctlout 103;
#X obj 250 415 ctlout 104;
#X obj 326 416 ctlout 105;
#X obj 402 417 ctlout 106;
#X connect 1 0 10 0;
#X connect 2 0 9 0;
#X connect 3 0 8 0;
#X connect 4 0 7 0;
#X connect 5 0 6 0;
#X connect 6 0 15 0;
#X connect 7 0 14 0;
#X connect 8 0 13 0;
#X connect 9 0 12 0;
#X connect 10 0 11 0;
#X coords 0 -1 1 1 250 250 1 100 100;
#X restore 729 65 pd mixer;
#X connect 1 0 0 0;
